<svg xmlns="http://www.w3.org/2000/svg" xmlns:xlink="http://www.w3.org/1999/xlink" viewBox="0 0 1920 1000.89"><defs><style>.cls-1{fill:url(#Dégradé_sans_nom_20);}</style><linearGradient id="Dégradé_sans_nom_20" y1="500.45" x2="1920" y2="500.45" gradientUnits="userSpaceOnUse"><stop offset="0" stop-color="#fff"/><stop offset="1" stop-color="#fff"/></linearGradient></defs><g id="Calque_2" data-name="Calque 2"><g id="Calque_1-2" data-name="Calque 1"><path class="cls-1" d="M1880.56,333.89c-85.62,12.05-153.33-241.38-227.87-232.62-45.36,5.34-39.6,101.47-117.1,221.54C1458.69,442,1322.91,548.89,1265,519c-57.35-29.57,11.22-167.73-79.12-335.47-12.8-23.77-67.18-124.72-117.1-117.1-80.19,12.25-38.87,287.81-153.49,335.47-96.64,40.18-256.64-101.34-378.2-208.88C412,82.44,341.55-15.36,306.75,3,271.26,21.67,322.94,134.74,257,267.43c-16.37,32.93-32.09,64.57-57,68C137.69,344.17,60.88,169.9,0,0V1000.89H1920V307C1912,317.52,1898.81,331.32,1880.56,333.89Z"/></g></g></svg>